# xmcd
#
# Track frame offsets:
#	205
#	15837
#	34465
#	49657
#	70790
#	84517
#	100920
#	116070
#	140422
#	157302
#
# Disc length: 2288 seconds
#
# Revision: 0
# Processed by: cddbd v1.4PL0 Copyright (c) Steve Scherf et al.
# Submitted via: dBpowerAMP V4.0
#
DISCID=8208ee0a
DTITLE=Jerry Santos - Expecting Friends
DYEAR=1900
DGENRE=
TTITLE0=E Nihi Ka Hele
TTITLE1=Only The Heart May Know
TTITLE2=Ipo Poli Anuanu
TTITLE3=Better Days/Dance And Fly
TTITLE4=Devoted To You
TTITLE5=I Love Kaua'i
TTITLE6=Ka Pua Mokihana
TTITLE7=Waimanalo Country Song
TTITLE8=Night Blooming Cereus
TTITLE9=A Song In The Wind
EXTD=
EXTT0=
EXTT1=
EXTT2=
EXTT3=
EXTT4=
EXTT5=
EXTT6=
EXTT7=
EXTT8=
EXTT9=
PLAYORDER=
